<mxfile host="app.diagrams.net" agent="Mozilla/5.0 (Windows NT 10.0; Win64; x64) AppleWebKit/537.36 (KHTML, like Gecko) Chrome/129.0.0.0 Safari/537.36" version="24.7.16">
  <diagram name="第 1 页" id="KADh7eXNDiNupCGbdeuv">
    <mxGraphModel dx="1441" dy="1136" grid="1" gridSize="10" guides="1" tooltips="1" connect="1" arrows="1" fold="1" page="1" pageScale="1" pageWidth="1169" pageHeight="827" math="0" shadow="0">
      <root>
        <mxCell id="0" />
        <mxCell id="1" parent="0" />
        <mxCell id="HvxJCi_6hqipYNqYmRr2-1" value="上传安装包&lt;div&gt;到安装节点&lt;/div&gt;" style="rounded=1;whiteSpace=wrap;html=1;" vertex="1" parent="1">
          <mxGeometry x="210" y="70" width="120" height="60" as="geometry" />
        </mxCell>
        <mxCell id="HvxJCi_6hqipYNqYmRr2-2" value="服务器初始化&lt;div&gt;（ssh免密，防火墙，selinx）&lt;/div&gt;" style="rounded=0;whiteSpace=wrap;html=1;" vertex="1" parent="1">
          <mxGeometry x="170" y="180" width="200" height="60" as="geometry" />
        </mxCell>
        <mxCell id="HvxJCi_6hqipYNqYmRr2-3" value="执行安装脚本installer.sh&lt;div&gt;并输入必要的安装参数&lt;/div&gt;" style="rounded=0;whiteSpace=wrap;html=1;" vertex="1" parent="1">
          <mxGeometry x="170" y="290" width="200" height="60" as="geometry" />
        </mxCell>
        <mxCell id="HvxJCi_6hqipYNqYmRr2-4" value="安装，初始化数据库" style="rounded=0;whiteSpace=wrap;html=1;" vertex="1" parent="1">
          <mxGeometry x="170" y="390" width="200" height="60" as="geometry" />
        </mxCell>
        <mxCell id="HvxJCi_6hqipYNqYmRr2-5" value="安装后端，前端应用程序" style="rounded=0;whiteSpace=wrap;html=1;" vertex="1" parent="1">
          <mxGeometry x="170" y="600" width="200" height="60" as="geometry" />
        </mxCell>
        <mxCell id="HvxJCi_6hqipYNqYmRr2-6" value="运行后端，前端应用程序" style="rounded=0;whiteSpace=wrap;html=1;" vertex="1" parent="1">
          <mxGeometry x="170" y="700" width="200" height="60" as="geometry" />
        </mxCell>
        <mxCell id="HvxJCi_6hqipYNqYmRr2-8" value="安装完成" style="shape=hexagon;perimeter=hexagonPerimeter2;whiteSpace=wrap;html=1;fixedSize=1;" vertex="1" parent="1">
          <mxGeometry x="210" y="810" width="120" height="80" as="geometry" />
        </mxCell>
        <mxCell id="HvxJCi_6hqipYNqYmRr2-9" value="安装容器化环境" style="rounded=0;whiteSpace=wrap;html=1;" vertex="1" parent="1">
          <mxGeometry x="170" y="500" width="200" height="60" as="geometry" />
        </mxCell>
      </root>
    </mxGraphModel>
  </diagram>
</mxfile>
